<svg xmlns="http://www.w3.org/2000/svg" xmlns:xlink="http://www.w3.org/1999/xlink" width="600" zoomAndPan="magnify" viewBox="0 0 450 89.999999" height="120" preserveAspectRatio="xMidYMid meet" version="1.0"><defs><g/></defs><rect x="-45" width="540" fill="#ffffff" y="-9" height="107.999999" fill-opacity="1"/><rect x="-45" width="540" fill="#ffffff" y="-9" height="107.999999" fill-opacity="1"/><g fill="#ff00ff" fill-opacity="1"><g transform="translate(2.618482, 83.309795)"><g><path d="M 40.84375 0 L 24.65625 0 C 23.394531 0 22.476562 -0.28125 21.90625 -0.84375 C 21.34375 -1.414062 21.0625 -2.332031 21.0625 -3.59375 L 21.0625 -52.625 L 6.390625 -52.625 C 5.128906 -52.625 4.210938 -52.90625 3.640625 -53.46875 C 3.078125 -54.03125 2.796875 -54.945312 2.796875 -56.21875 L 2.796875 -68.296875 C 2.796875 -69.554688 3.078125 -70.46875 3.640625 -71.03125 C 4.210938 -71.601562 5.128906 -71.890625 6.390625 -71.890625 L 59.109375 -71.890625 C 60.367188 -71.890625 61.28125 -71.601562 61.84375 -71.03125 C 62.414062 -70.46875 62.703125 -69.554688 62.703125 -68.296875 L 62.703125 -56.21875 C 62.703125 -54.945312 62.414062 -54.03125 61.84375 -53.46875 C 61.28125 -52.90625 60.367188 -52.625 59.109375 -52.625 L 44.4375 -52.625 L 44.4375 -3.59375 C 44.4375 -2.332031 44.148438 -1.414062 43.578125 -0.84375 C 43.015625 -0.28125 42.101562 0 40.84375 0 Z M 40.84375 0 "/></g></g></g><g fill="#ff00ff" fill-opacity="1"><g transform="translate(68.120449, 83.309795)"><g><path d="M 67.796875 -18.875 C 67.796875 -15.8125 67.34375 -13.03125 66.4375 -10.53125 C 65.539062 -8.039062 63.941406 -5.910156 61.640625 -4.140625 C 59.347656 -2.378906 56.1875 -1 52.15625 0 C 48.132812 1 43.03125 1.5 36.84375 1.5 C 30.65625 1.5 25.53125 1 21.46875 0 C 17.40625 -1 14.222656 -2.378906 11.921875 -4.140625 C 9.628906 -5.910156 8.035156 -8.039062 7.140625 -10.53125 C 6.242188 -13.03125 5.796875 -15.8125 5.796875 -18.875 L 5.796875 -52.921875 C 5.796875 -55.984375 6.242188 -58.757812 7.140625 -61.25 C 8.035156 -63.75 9.628906 -65.894531 11.921875 -67.6875 C 14.222656 -69.488281 17.40625 -70.890625 21.46875 -71.890625 C 25.53125 -72.890625 30.65625 -73.390625 36.84375 -73.390625 C 43.03125 -73.390625 48.132812 -72.890625 52.15625 -71.890625 C 56.1875 -70.890625 59.347656 -69.488281 61.640625 -67.6875 C 63.941406 -65.894531 65.539062 -63.75 66.4375 -61.25 C 67.34375 -58.757812 67.796875 -55.984375 67.796875 -52.921875 Z M 28.453125 -22.46875 C 28.453125 -21.132812 28.953125 -20.015625 29.953125 -19.109375 C 30.953125 -18.210938 33.25 -17.765625 36.84375 -17.765625 C 40.4375 -17.765625 42.734375 -18.210938 43.734375 -19.109375 C 44.734375 -20.015625 45.234375 -21.132812 45.234375 -22.46875 L 45.234375 -49.328125 C 45.234375 -50.585938 44.734375 -51.664062 43.734375 -52.5625 C 42.734375 -53.46875 40.4375 -53.921875 36.84375 -53.921875 C 33.25 -53.921875 30.953125 -53.46875 29.953125 -52.5625 C 28.953125 -51.664062 28.453125 -50.585938 28.453125 -49.328125 Z M 28.453125 -22.46875 "/></g></g></g><g fill="#ff00ff" fill-opacity="1"><g transform="translate(141.7103, 83.309795)"><g><path d="M 25.953125 0 L 10.484375 0 C 9.222656 0 8.304688 -0.28125 7.734375 -0.84375 C 7.171875 -1.414062 6.890625 -2.332031 6.890625 -3.59375 L 6.890625 -68.296875 C 6.890625 -69.554688 7.171875 -70.46875 7.734375 -71.03125 C 8.304688 -71.601562 9.222656 -71.890625 10.484375 -71.890625 L 41.03125 -71.890625 C 50.082031 -71.890625 56.269531 -70.09375 59.59375 -66.5 C 62.925781 -62.90625 64.59375 -58.210938 64.59375 -52.421875 L 64.59375 -39.640625 C 64.59375 -33.847656 62.925781 -29.15625 59.59375 -25.5625 C 56.269531 -21.96875 50.082031 -20.171875 41.03125 -20.171875 L 29.546875 -20.171875 L 29.546875 -3.59375 C 29.546875 -2.332031 29.265625 -1.414062 28.703125 -0.84375 C 28.140625 -0.28125 27.222656 0 25.953125 0 Z M 29.359375 -53.21875 L 29.359375 -38.140625 L 38.34375 -38.140625 C 40.269531 -38.140625 41.53125 -38.640625 42.125 -39.640625 C 42.726562 -40.640625 43.03125 -41.769531 43.03125 -43.03125 L 43.03125 -48.328125 C 43.03125 -49.585938 42.726562 -50.71875 42.125 -51.71875 C 41.53125 -52.71875 40.269531 -53.21875 38.34375 -53.21875 Z M 29.359375 -53.21875 "/></g></g></g><g fill="#ff00ff" fill-opacity="1"><g transform="translate(209.808377, 83.309795)"><g/></g></g><g fill="#ff00ff" fill-opacity="1"><g transform="translate(232.274753, 83.309795)"><g><path d="M 28.359375 -3.59375 C 28.359375 -2.332031 28.070312 -1.414062 27.5 -0.84375 C 26.9375 -0.28125 26.023438 0 24.765625 0 L 9.578125 0 C 8.316406 0 7.398438 -0.28125 6.828125 -0.84375 C 6.265625 -1.414062 5.984375 -2.332031 5.984375 -3.59375 L 5.984375 -14.28125 C 5.984375 -17.34375 6.25 -19.640625 6.78125 -21.171875 C 7.320312 -22.703125 8.320312 -24.5 9.78125 -26.5625 L 17.875 -37.4375 L 9.78125 -48.328125 C 8.25 -50.390625 7.234375 -52.1875 6.734375 -53.71875 C 6.234375 -55.25 5.984375 -57.546875 5.984375 -60.609375 L 5.984375 -68.296875 C 5.984375 -69.554688 6.265625 -70.46875 6.828125 -71.03125 C 7.398438 -71.601562 8.316406 -71.890625 9.578125 -71.890625 L 24.953125 -71.890625 C 26.222656 -71.890625 27.140625 -71.601562 27.703125 -71.03125 C 28.273438 -70.46875 28.5625 -69.554688 28.5625 -68.296875 L 28.5625 -61.40625 C 28.5625 -60.738281 28.59375 -60.035156 28.65625 -59.296875 C 28.71875 -58.566406 28.984375 -57.867188 29.453125 -57.203125 L 33.84375 -50.921875 C 34.175781 -50.390625 34.523438 -49.972656 34.890625 -49.671875 C 35.253906 -49.367188 35.707031 -49.21875 36.25 -49.21875 L 37.4375 -49.21875 C 37.96875 -49.21875 38.398438 -49.367188 38.734375 -49.671875 C 39.066406 -49.972656 39.4375 -50.390625 39.84375 -50.921875 L 44.328125 -57.203125 C 44.796875 -57.867188 45.0625 -58.566406 45.125 -59.296875 C 45.195312 -60.035156 45.234375 -60.738281 45.234375 -61.40625 L 45.234375 -68.296875 C 45.234375 -69.554688 45.515625 -70.46875 46.078125 -71.03125 C 46.640625 -71.601562 47.554688 -71.890625 48.828125 -71.890625 L 64 -71.890625 C 65.257812 -71.890625 66.171875 -71.601562 66.734375 -71.03125 C 67.304688 -70.46875 67.59375 -69.554688 67.59375 -68.296875 L 67.59375 -60.609375 C 67.59375 -57.546875 67.328125 -55.25 66.796875 -53.71875 C 66.265625 -52.1875 65.265625 -50.390625 63.796875 -48.328125 L 55.71875 -37.34375 L 63.796875 -26.5625 C 65.328125 -24.5 66.34375 -22.703125 66.84375 -21.171875 C 67.34375 -19.640625 67.59375 -17.34375 67.59375 -14.28125 L 67.59375 -3.59375 C 67.59375 -2.332031 67.304688 -1.414062 66.734375 -0.84375 C 66.171875 -0.28125 65.257812 0 64 0 L 48.828125 0 C 47.554688 0 46.640625 -0.28125 46.078125 -0.84375 C 45.515625 -1.414062 45.234375 -2.332031 45.234375 -3.59375 L 45.234375 -13.484375 C 45.234375 -14.148438 45.195312 -14.847656 45.125 -15.578125 C 45.0625 -16.304688 44.796875 -17.003906 44.328125 -17.671875 L 39.9375 -23.96875 C 39.539062 -24.5625 39.175781 -24.988281 38.84375 -25.25 C 38.507812 -25.519531 38.078125 -25.65625 37.546875 -25.65625 L 36.140625 -25.65625 C 35.609375 -25.65625 35.175781 -25.519531 34.84375 -25.25 C 34.507812 -24.988281 34.144531 -24.5625 33.75 -23.96875 L 29.25 -17.671875 C 28.789062 -17.003906 28.523438 -16.304688 28.453125 -15.578125 C 28.390625 -14.847656 28.359375 -14.148438 28.359375 -13.484375 Z M 28.359375 -3.59375 "/></g></g></g><g fill="#ff00ff" fill-opacity="1"><g transform="translate(305.864627, 83.309795)"><g><path d="M 43.328125 0 L 27.15625 0 C 25.894531 0 24.976562 -0.28125 24.40625 -0.84375 C 23.84375 -1.414062 23.5625 -2.332031 23.5625 -3.59375 L 23.5625 -16.375 L 8.28125 -36.84375 C 6.75 -38.90625 5.734375 -40.703125 5.234375 -42.234375 C 4.742188 -43.765625 4.5 -46.0625 4.5 -49.125 L 4.5 -68.296875 C 4.5 -69.554688 4.78125 -70.46875 5.34375 -71.03125 C 5.90625 -71.601562 6.820312 -71.890625 8.09375 -71.890625 L 23.46875 -71.890625 C 24.726562 -71.890625 25.640625 -71.601562 26.203125 -71.03125 C 26.773438 -70.46875 27.0625 -69.554688 27.0625 -68.296875 L 27.0625 -51.921875 C 27.0625 -51.253906 27.09375 -50.550781 27.15625 -49.8125 C 27.21875 -49.082031 27.484375 -48.382812 27.953125 -47.71875 L 32.546875 -40.53125 C 32.878906 -39.9375 33.226562 -39.503906 33.59375 -39.234375 C 33.957031 -38.972656 34.40625 -38.84375 34.9375 -38.84375 L 35.9375 -38.84375 C 36.476562 -38.84375 36.929688 -38.972656 37.296875 -39.234375 C 37.660156 -39.503906 38.007812 -39.9375 38.34375 -40.53125 L 42.9375 -47.71875 C 43.394531 -48.382812 43.65625 -49.082031 43.71875 -49.8125 C 43.789062 -50.550781 43.828125 -51.253906 43.828125 -51.921875 L 43.828125 -68.296875 C 43.828125 -69.554688 44.109375 -70.46875 44.671875 -71.03125 C 45.242188 -71.601562 46.160156 -71.890625 47.421875 -71.890625 L 62.296875 -71.890625 C 63.566406 -71.890625 64.484375 -71.601562 65.046875 -71.03125 C 65.609375 -70.46875 65.890625 -69.554688 65.890625 -68.296875 L 65.890625 -49.125 C 65.890625 -46.0625 65.625 -43.765625 65.09375 -42.234375 C 64.5625 -40.703125 63.566406 -38.90625 62.109375 -36.84375 L 46.921875 -16.28125 L 46.921875 -3.59375 C 46.921875 -2.332031 46.640625 -1.414062 46.078125 -0.84375 C 45.515625 -0.28125 44.597656 0 43.328125 0 Z M 43.328125 0 "/></g></g></g><g fill="#ff00ff" fill-opacity="1"><g transform="translate(376.25926, 83.309795)"><g><path d="M 57.703125 0 L 8.1875 0 C 6.925781 0 6.007812 -0.28125 5.4375 -0.84375 C 4.875 -1.414062 4.59375 -2.332031 4.59375 -3.59375 L 4.59375 -16.96875 C 4.59375 -18.238281 4.789062 -19.351562 5.1875 -20.3125 C 5.59375 -21.28125 6.226562 -22.226562 7.09375 -23.15625 L 31.34375 -52.625 L 9.984375 -52.625 C 8.722656 -52.625 7.804688 -52.90625 7.234375 -53.46875 C 6.671875 -54.03125 6.390625 -54.945312 6.390625 -56.21875 L 6.390625 -68.296875 C 6.390625 -69.554688 6.671875 -70.46875 7.234375 -71.03125 C 7.804688 -71.601562 8.722656 -71.890625 9.984375 -71.890625 L 55.90625 -71.890625 C 57.175781 -71.890625 58.09375 -71.601562 58.65625 -71.03125 C 59.21875 -70.46875 59.5 -69.554688 59.5 -68.296875 L 59.5 -53.421875 C 59.5 -52.085938 59.300781 -50.9375 58.90625 -49.96875 C 58.507812 -49.007812 57.878906 -48.0625 57.015625 -47.125 L 33.84375 -19.0625 L 57.703125 -19.0625 C 58.972656 -19.0625 59.890625 -18.78125 60.453125 -18.21875 C 61.015625 -17.65625 61.296875 -16.738281 61.296875 -15.46875 L 61.296875 -3.59375 C 61.296875 -2.332031 61.015625 -1.414062 60.453125 -0.84375 C 59.890625 -0.28125 58.972656 0 57.703125 0 Z M 57.703125 0 "/></g></g></g><g fill="#00ffff" fill-opacity="1"><g transform="translate(7.821592, 78.457816)"><g><path d="M 40.84375 0 L 24.65625 0 C 23.394531 0 22.476562 -0.28125 21.90625 -0.84375 C 21.34375 -1.414062 21.0625 -2.332031 21.0625 -3.59375 L 21.0625 -52.625 L 6.390625 -52.625 C 5.128906 -52.625 4.210938 -52.90625 3.640625 -53.46875 C 3.078125 -54.03125 2.796875 -54.945312 2.796875 -56.21875 L 2.796875 -68.296875 C 2.796875 -69.554688 3.078125 -70.46875 3.640625 -71.03125 C 4.210938 -71.601562 5.128906 -71.890625 6.390625 -71.890625 L 59.109375 -71.890625 C 60.367188 -71.890625 61.28125 -71.601562 61.84375 -71.03125 C 62.414062 -70.46875 62.703125 -69.554688 62.703125 -68.296875 L 62.703125 -56.21875 C 62.703125 -54.945312 62.414062 -54.03125 61.84375 -53.46875 C 61.28125 -52.90625 60.367188 -52.625 59.109375 -52.625 L 44.4375 -52.625 L 44.4375 -3.59375 C 44.4375 -2.332031 44.148438 -1.414062 43.578125 -0.84375 C 43.015625 -0.28125 42.101562 0 40.84375 0 Z M 40.84375 0 "/></g></g></g><g fill="#00ffff" fill-opacity="1"><g transform="translate(73.323559, 78.457816)"><g><path d="M 67.796875 -18.875 C 67.796875 -15.8125 67.34375 -13.03125 66.4375 -10.53125 C 65.539062 -8.039062 63.941406 -5.910156 61.640625 -4.140625 C 59.347656 -2.378906 56.1875 -1 52.15625 0 C 48.132812 1 43.03125 1.5 36.84375 1.5 C 30.65625 1.5 25.53125 1 21.46875 0 C 17.40625 -1 14.222656 -2.378906 11.921875 -4.140625 C 9.628906 -5.910156 8.035156 -8.039062 7.140625 -10.53125 C 6.242188 -13.03125 5.796875 -15.8125 5.796875 -18.875 L 5.796875 -52.921875 C 5.796875 -55.984375 6.242188 -58.757812 7.140625 -61.25 C 8.035156 -63.75 9.628906 -65.894531 11.921875 -67.6875 C 14.222656 -69.488281 17.40625 -70.890625 21.46875 -71.890625 C 25.53125 -72.890625 30.65625 -73.390625 36.84375 -73.390625 C 43.03125 -73.390625 48.132812 -72.890625 52.15625 -71.890625 C 56.1875 -70.890625 59.347656 -69.488281 61.640625 -67.6875 C 63.941406 -65.894531 65.539062 -63.75 66.4375 -61.25 C 67.34375 -58.757812 67.796875 -55.984375 67.796875 -52.921875 Z M 28.453125 -22.46875 C 28.453125 -21.132812 28.953125 -20.015625 29.953125 -19.109375 C 30.953125 -18.210938 33.25 -17.765625 36.84375 -17.765625 C 40.4375 -17.765625 42.734375 -18.210938 43.734375 -19.109375 C 44.734375 -20.015625 45.234375 -21.132812 45.234375 -22.46875 L 45.234375 -49.328125 C 45.234375 -50.585938 44.734375 -51.664062 43.734375 -52.5625 C 42.734375 -53.46875 40.4375 -53.921875 36.84375 -53.921875 C 33.25 -53.921875 30.953125 -53.46875 29.953125 -52.5625 C 28.953125 -51.664062 28.453125 -50.585938 28.453125 -49.328125 Z M 28.453125 -22.46875 "/></g></g></g><g fill="#00ffff" fill-opacity="1"><g transform="translate(146.91341, 78.457816)"><g><path d="M 25.953125 0 L 10.484375 0 C 9.222656 0 8.304688 -0.28125 7.734375 -0.84375 C 7.171875 -1.414062 6.890625 -2.332031 6.890625 -3.59375 L 6.890625 -68.296875 C 6.890625 -69.554688 7.171875 -70.46875 7.734375 -71.03125 C 8.304688 -71.601562 9.222656 -71.890625 10.484375 -71.890625 L 41.03125 -71.890625 C 50.082031 -71.890625 56.269531 -70.09375 59.59375 -66.5 C 62.925781 -62.90625 64.59375 -58.210938 64.59375 -52.421875 L 64.59375 -39.640625 C 64.59375 -33.847656 62.925781 -29.15625 59.59375 -25.5625 C 56.269531 -21.96875 50.082031 -20.171875 41.03125 -20.171875 L 29.546875 -20.171875 L 29.546875 -3.59375 C 29.546875 -2.332031 29.265625 -1.414062 28.703125 -0.84375 C 28.140625 -0.28125 27.222656 0 25.953125 0 Z M 29.359375 -53.21875 L 29.359375 -38.140625 L 38.34375 -38.140625 C 40.269531 -38.140625 41.53125 -38.640625 42.125 -39.640625 C 42.726562 -40.640625 43.03125 -41.769531 43.03125 -43.03125 L 43.03125 -48.328125 C 43.03125 -49.585938 42.726562 -50.71875 42.125 -51.71875 C 41.53125 -52.71875 40.269531 -53.21875 38.34375 -53.21875 Z M 29.359375 -53.21875 "/></g></g></g><g fill="#00ffff" fill-opacity="1"><g transform="translate(215.011487, 78.457816)"><g/></g></g><g fill="#00ffff" fill-opacity="1"><g transform="translate(237.477863, 78.457816)"><g><path d="M 28.359375 -3.59375 C 28.359375 -2.332031 28.070312 -1.414062 27.5 -0.84375 C 26.9375 -0.28125 26.023438 0 24.765625 0 L 9.578125 0 C 8.316406 0 7.398438 -0.28125 6.828125 -0.84375 C 6.265625 -1.414062 5.984375 -2.332031 5.984375 -3.59375 L 5.984375 -14.28125 C 5.984375 -17.34375 6.25 -19.640625 6.78125 -21.171875 C 7.320312 -22.703125 8.320312 -24.5 9.78125 -26.5625 L 17.875 -37.4375 L 9.78125 -48.328125 C 8.25 -50.390625 7.234375 -52.1875 6.734375 -53.71875 C 6.234375 -55.25 5.984375 -57.546875 5.984375 -60.609375 L 5.984375 -68.296875 C 5.984375 -69.554688 6.265625 -70.46875 6.828125 -71.03125 C 7.398438 -71.601562 8.316406 -71.890625 9.578125 -71.890625 L 24.953125 -71.890625 C 26.222656 -71.890625 27.140625 -71.601562 27.703125 -71.03125 C 28.273438 -70.46875 28.5625 -69.554688 28.5625 -68.296875 L 28.5625 -61.40625 C 28.5625 -60.738281 28.59375 -60.035156 28.65625 -59.296875 C 28.71875 -58.566406 28.984375 -57.867188 29.453125 -57.203125 L 33.84375 -50.921875 C 34.175781 -50.390625 34.523438 -49.972656 34.890625 -49.671875 C 35.253906 -49.367188 35.707031 -49.21875 36.25 -49.21875 L 37.4375 -49.21875 C 37.96875 -49.21875 38.398438 -49.367188 38.734375 -49.671875 C 39.066406 -49.972656 39.4375 -50.390625 39.84375 -50.921875 L 44.328125 -57.203125 C 44.796875 -57.867188 45.0625 -58.566406 45.125 -59.296875 C 45.195312 -60.035156 45.234375 -60.738281 45.234375 -61.40625 L 45.234375 -68.296875 C 45.234375 -69.554688 45.515625 -70.46875 46.078125 -71.03125 C 46.640625 -71.601562 47.554688 -71.890625 48.828125 -71.890625 L 64 -71.890625 C 65.257812 -71.890625 66.171875 -71.601562 66.734375 -71.03125 C 67.304688 -70.46875 67.59375 -69.554688 67.59375 -68.296875 L 67.59375 -60.609375 C 67.59375 -57.546875 67.328125 -55.25 66.796875 -53.71875 C 66.265625 -52.1875 65.265625 -50.390625 63.796875 -48.328125 L 55.71875 -37.34375 L 63.796875 -26.5625 C 65.328125 -24.5 66.34375 -22.703125 66.84375 -21.171875 C 67.34375 -19.640625 67.59375 -17.34375 67.59375 -14.28125 L 67.59375 -3.59375 C 67.59375 -2.332031 67.304688 -1.414062 66.734375 -0.84375 C 66.171875 -0.28125 65.257812 0 64 0 L 48.828125 0 C 47.554688 0 46.640625 -0.28125 46.078125 -0.84375 C 45.515625 -1.414062 45.234375 -2.332031 45.234375 -3.59375 L 45.234375 -13.484375 C 45.234375 -14.148438 45.195312 -14.847656 45.125 -15.578125 C 45.0625 -16.304688 44.796875 -17.003906 44.328125 -17.671875 L 39.9375 -23.96875 C 39.539062 -24.5625 39.175781 -24.988281 38.84375 -25.25 C 38.507812 -25.519531 38.078125 -25.65625 37.546875 -25.65625 L 36.140625 -25.65625 C 35.609375 -25.65625 35.175781 -25.519531 34.84375 -25.25 C 34.507812 -24.988281 34.144531 -24.5625 33.75 -23.96875 L 29.25 -17.671875 C 28.789062 -17.003906 28.523438 -16.304688 28.453125 -15.578125 C 28.390625 -14.847656 28.359375 -14.148438 28.359375 -13.484375 Z M 28.359375 -3.59375 "/></g></g></g><g fill="#00ffff" fill-opacity="1"><g transform="translate(311.067737, 78.457816)"><g><path d="M 43.328125 0 L 27.15625 0 C 25.894531 0 24.976562 -0.28125 24.40625 -0.84375 C 23.84375 -1.414062 23.5625 -2.332031 23.5625 -3.59375 L 23.5625 -16.375 L 8.28125 -36.84375 C 6.75 -38.90625 5.734375 -40.703125 5.234375 -42.234375 C 4.742188 -43.765625 4.5 -46.0625 4.5 -49.125 L 4.5 -68.296875 C 4.5 -69.554688 4.78125 -70.46875 5.34375 -71.03125 C 5.90625 -71.601562 6.820312 -71.890625 8.09375 -71.890625 L 23.46875 -71.890625 C 24.726562 -71.890625 25.640625 -71.601562 26.203125 -71.03125 C 26.773438 -70.46875 27.0625 -69.554688 27.0625 -68.296875 L 27.0625 -51.921875 C 27.0625 -51.253906 27.09375 -50.550781 27.15625 -49.8125 C 27.21875 -49.082031 27.484375 -48.382812 27.953125 -47.71875 L 32.546875 -40.53125 C 32.878906 -39.9375 33.226562 -39.503906 33.59375 -39.234375 C 33.957031 -38.972656 34.40625 -38.84375 34.9375 -38.84375 L 35.9375 -38.84375 C 36.476562 -38.84375 36.929688 -38.972656 37.296875 -39.234375 C 37.660156 -39.503906 38.007812 -39.9375 38.34375 -40.53125 L 42.9375 -47.71875 C 43.394531 -48.382812 43.65625 -49.082031 43.71875 -49.8125 C 43.789062 -50.550781 43.828125 -51.253906 43.828125 -51.921875 L 43.828125 -68.296875 C 43.828125 -69.554688 44.109375 -70.46875 44.671875 -71.03125 C 45.242188 -71.601562 46.160156 -71.890625 47.421875 -71.890625 L 62.296875 -71.890625 C 63.566406 -71.890625 64.484375 -71.601562 65.046875 -71.03125 C 65.609375 -70.46875 65.890625 -69.554688 65.890625 -68.296875 L 65.890625 -49.125 C 65.890625 -46.0625 65.625 -43.765625 65.09375 -42.234375 C 64.5625 -40.703125 63.566406 -38.90625 62.109375 -36.84375 L 46.921875 -16.28125 L 46.921875 -3.59375 C 46.921875 -2.332031 46.640625 -1.414062 46.078125 -0.84375 C 45.515625 -0.28125 44.597656 0 43.328125 0 Z M 43.328125 0 "/></g></g></g><g fill="#00ffff" fill-opacity="1"><g transform="translate(381.46237, 78.457816)"><g><path d="M 57.703125 0 L 8.1875 0 C 6.925781 0 6.007812 -0.28125 5.4375 -0.84375 C 4.875 -1.414062 4.59375 -2.332031 4.59375 -3.59375 L 4.59375 -16.96875 C 4.59375 -18.238281 4.789062 -19.351562 5.1875 -20.3125 C 5.59375 -21.28125 6.226562 -22.226562 7.09375 -23.15625 L 31.34375 -52.625 L 9.984375 -52.625 C 8.722656 -52.625 7.804688 -52.90625 7.234375 -53.46875 C 6.671875 -54.03125 6.390625 -54.945312 6.390625 -56.21875 L 6.390625 -68.296875 C 6.390625 -69.554688 6.671875 -70.46875 7.234375 -71.03125 C 7.804688 -71.601562 8.722656 -71.890625 9.984375 -71.890625 L 55.90625 -71.890625 C 57.175781 -71.890625 58.09375 -71.601562 58.65625 -71.03125 C 59.21875 -70.46875 59.5 -69.554688 59.5 -68.296875 L 59.5 -53.421875 C 59.5 -52.085938 59.300781 -50.9375 58.90625 -49.96875 C 58.507812 -49.007812 57.878906 -48.0625 57.015625 -47.125 L 33.84375 -19.0625 L 57.703125 -19.0625 C 58.972656 -19.0625 59.890625 -18.78125 60.453125 -18.21875 C 61.015625 -17.65625 61.296875 -16.738281 61.296875 -15.46875 L 61.296875 -3.59375 C 61.296875 -2.332031 61.015625 -1.414062 60.453125 -0.84375 C 59.890625 -0.28125 58.972656 0 57.703125 0 Z M 57.703125 0 "/></g></g></g><g fill="#8b3dff" fill-opacity="1"><g transform="translate(5.220037, 80.883806)"><g><path d="M 40.84375 0 L 24.65625 0 C 23.394531 0 22.476562 -0.28125 21.90625 -0.84375 C 21.34375 -1.414062 21.0625 -2.332031 21.0625 -3.59375 L 21.0625 -52.625 L 6.390625 -52.625 C 5.128906 -52.625 4.210938 -52.90625 3.640625 -53.46875 C 3.078125 -54.03125 2.796875 -54.945312 2.796875 -56.21875 L 2.796875 -68.296875 C 2.796875 -69.554688 3.078125 -70.46875 3.640625 -71.03125 C 4.210938 -71.601562 5.128906 -71.890625 6.390625 -71.890625 L 59.109375 -71.890625 C 60.367188 -71.890625 61.28125 -71.601562 61.84375 -71.03125 C 62.414062 -70.46875 62.703125 -69.554688 62.703125 -68.296875 L 62.703125 -56.21875 C 62.703125 -54.945312 62.414062 -54.03125 61.84375 -53.46875 C 61.28125 -52.90625 60.367188 -52.625 59.109375 -52.625 L 44.4375 -52.625 L 44.4375 -3.59375 C 44.4375 -2.332031 44.148438 -1.414062 43.578125 -0.84375 C 43.015625 -0.28125 42.101562 0 40.84375 0 Z M 40.84375 0 "/></g></g></g><g fill="#8b3dff" fill-opacity="1"><g transform="translate(70.722004, 80.883806)"><g><path d="M 67.796875 -18.875 C 67.796875 -15.8125 67.34375 -13.03125 66.4375 -10.53125 C 65.539062 -8.039062 63.941406 -5.910156 61.640625 -4.140625 C 59.347656 -2.378906 56.1875 -1 52.15625 0 C 48.132812 1 43.03125 1.5 36.84375 1.5 C 30.65625 1.5 25.53125 1 21.46875 0 C 17.40625 -1 14.222656 -2.378906 11.921875 -4.140625 C 9.628906 -5.910156 8.035156 -8.039062 7.140625 -10.53125 C 6.242188 -13.03125 5.796875 -15.8125 5.796875 -18.875 L 5.796875 -52.921875 C 5.796875 -55.984375 6.242188 -58.757812 7.140625 -61.25 C 8.035156 -63.75 9.628906 -65.894531 11.921875 -67.6875 C 14.222656 -69.488281 17.40625 -70.890625 21.46875 -71.890625 C 25.53125 -72.890625 30.65625 -73.390625 36.84375 -73.390625 C 43.03125 -73.390625 48.132812 -72.890625 52.15625 -71.890625 C 56.1875 -70.890625 59.347656 -69.488281 61.640625 -67.6875 C 63.941406 -65.894531 65.539062 -63.75 66.4375 -61.25 C 67.34375 -58.757812 67.796875 -55.984375 67.796875 -52.921875 Z M 28.453125 -22.46875 C 28.453125 -21.132812 28.953125 -20.015625 29.953125 -19.109375 C 30.953125 -18.210938 33.25 -17.765625 36.84375 -17.765625 C 40.4375 -17.765625 42.734375 -18.210938 43.734375 -19.109375 C 44.734375 -20.015625 45.234375 -21.132812 45.234375 -22.46875 L 45.234375 -49.328125 C 45.234375 -50.585938 44.734375 -51.664062 43.734375 -52.5625 C 42.734375 -53.46875 40.4375 -53.921875 36.84375 -53.921875 C 33.25 -53.921875 30.953125 -53.46875 29.953125 -52.5625 C 28.953125 -51.664062 28.453125 -50.585938 28.453125 -49.328125 Z M 28.453125 -22.46875 "/></g></g></g><g fill="#8b3dff" fill-opacity="1"><g transform="translate(144.311855, 80.883806)"><g><path d="M 25.953125 0 L 10.484375 0 C 9.222656 0 8.304688 -0.28125 7.734375 -0.84375 C 7.171875 -1.414062 6.890625 -2.332031 6.890625 -3.59375 L 6.890625 -68.296875 C 6.890625 -69.554688 7.171875 -70.46875 7.734375 -71.03125 C 8.304688 -71.601562 9.222656 -71.890625 10.484375 -71.890625 L 41.03125 -71.890625 C 50.082031 -71.890625 56.269531 -70.09375 59.59375 -66.5 C 62.925781 -62.90625 64.59375 -58.210938 64.59375 -52.421875 L 64.59375 -39.640625 C 64.59375 -33.847656 62.925781 -29.15625 59.59375 -25.5625 C 56.269531 -21.96875 50.082031 -20.171875 41.03125 -20.171875 L 29.546875 -20.171875 L 29.546875 -3.59375 C 29.546875 -2.332031 29.265625 -1.414062 28.703125 -0.84375 C 28.140625 -0.28125 27.222656 0 25.953125 0 Z M 29.359375 -53.21875 L 29.359375 -38.140625 L 38.34375 -38.140625 C 40.269531 -38.140625 41.53125 -38.640625 42.125 -39.640625 C 42.726562 -40.640625 43.03125 -41.769531 43.03125 -43.03125 L 43.03125 -48.328125 C 43.03125 -49.585938 42.726562 -50.71875 42.125 -51.71875 C 41.53125 -52.71875 40.269531 -53.21875 38.34375 -53.21875 Z M 29.359375 -53.21875 "/></g></g></g><g fill="#8b3dff" fill-opacity="1"><g transform="translate(212.409932, 80.883806)"><g/></g></g><g fill="#8b3dff" fill-opacity="1"><g transform="translate(234.876308, 80.883806)"><g><path d="M 28.359375 -3.59375 C 28.359375 -2.332031 28.070312 -1.414062 27.5 -0.84375 C 26.9375 -0.28125 26.023438 0 24.765625 0 L 9.578125 0 C 8.316406 0 7.398438 -0.28125 6.828125 -0.84375 C 6.265625 -1.414062 5.984375 -2.332031 5.984375 -3.59375 L 5.984375 -14.28125 C 5.984375 -17.34375 6.25 -19.640625 6.78125 -21.171875 C 7.320312 -22.703125 8.320312 -24.5 9.78125 -26.5625 L 17.875 -37.4375 L 9.78125 -48.328125 C 8.25 -50.390625 7.234375 -52.1875 6.734375 -53.71875 C 6.234375 -55.25 5.984375 -57.546875 5.984375 -60.609375 L 5.984375 -68.296875 C 5.984375 -69.554688 6.265625 -70.46875 6.828125 -71.03125 C 7.398438 -71.601562 8.316406 -71.890625 9.578125 -71.890625 L 24.953125 -71.890625 C 26.222656 -71.890625 27.140625 -71.601562 27.703125 -71.03125 C 28.273438 -70.46875 28.5625 -69.554688 28.5625 -68.296875 L 28.5625 -61.40625 C 28.5625 -60.738281 28.59375 -60.035156 28.65625 -59.296875 C 28.71875 -58.566406 28.984375 -57.867188 29.453125 -57.203125 L 33.84375 -50.921875 C 34.175781 -50.390625 34.523438 -49.972656 34.890625 -49.671875 C 35.253906 -49.367188 35.707031 -49.21875 36.25 -49.21875 L 37.4375 -49.21875 C 37.96875 -49.21875 38.398438 -49.367188 38.734375 -49.671875 C 39.066406 -49.972656 39.4375 -50.390625 39.84375 -50.921875 L 44.328125 -57.203125 C 44.796875 -57.867188 45.0625 -58.566406 45.125 -59.296875 C 45.195312 -60.035156 45.234375 -60.738281 45.234375 -61.40625 L 45.234375 -68.296875 C 45.234375 -69.554688 45.515625 -70.46875 46.078125 -71.03125 C 46.640625 -71.601562 47.554688 -71.890625 48.828125 -71.890625 L 64 -71.890625 C 65.257812 -71.890625 66.171875 -71.601562 66.734375 -71.03125 C 67.304688 -70.46875 67.59375 -69.554688 67.59375 -68.296875 L 67.59375 -60.609375 C 67.59375 -57.546875 67.328125 -55.25 66.796875 -53.71875 C 66.265625 -52.1875 65.265625 -50.390625 63.796875 -48.328125 L 55.71875 -37.34375 L 63.796875 -26.5625 C 65.328125 -24.5 66.34375 -22.703125 66.84375 -21.171875 C 67.34375 -19.640625 67.59375 -17.34375 67.59375 -14.28125 L 67.59375 -3.59375 C 67.59375 -2.332031 67.304688 -1.414062 66.734375 -0.84375 C 66.171875 -0.28125 65.257812 0 64 0 L 48.828125 0 C 47.554688 0 46.640625 -0.28125 46.078125 -0.84375 C 45.515625 -1.414062 45.234375 -2.332031 45.234375 -3.59375 L 45.234375 -13.484375 C 45.234375 -14.148438 45.195312 -14.847656 45.125 -15.578125 C 45.0625 -16.304688 44.796875 -17.003906 44.328125 -17.671875 L 39.9375 -23.96875 C 39.539062 -24.5625 39.175781 -24.988281 38.84375 -25.25 C 38.507812 -25.519531 38.078125 -25.65625 37.546875 -25.65625 L 36.140625 -25.65625 C 35.609375 -25.65625 35.175781 -25.519531 34.84375 -25.25 C 34.507812 -24.988281 34.144531 -24.5625 33.75 -23.96875 L 29.25 -17.671875 C 28.789062 -17.003906 28.523438 -16.304688 28.453125 -15.578125 C 28.390625 -14.847656 28.359375 -14.148438 28.359375 -13.484375 Z M 28.359375 -3.59375 "/></g></g></g><g fill="#8b3dff" fill-opacity="1"><g transform="translate(308.466182, 80.883806)"><g><path d="M 43.328125 0 L 27.15625 0 C 25.894531 0 24.976562 -0.28125 24.40625 -0.84375 C 23.84375 -1.414062 23.5625 -2.332031 23.5625 -3.59375 L 23.5625 -16.375 L 8.28125 -36.84375 C 6.75 -38.90625 5.734375 -40.703125 5.234375 -42.234375 C 4.742188 -43.765625 4.5 -46.0625 4.5 -49.125 L 4.5 -68.296875 C 4.5 -69.554688 4.78125 -70.46875 5.34375 -71.03125 C 5.90625 -71.601562 6.820312 -71.890625 8.09375 -71.890625 L 23.46875 -71.890625 C 24.726562 -71.890625 25.640625 -71.601562 26.203125 -71.03125 C 26.773438 -70.46875 27.0625 -69.554688 27.0625 -68.296875 L 27.0625 -51.921875 C 27.0625 -51.253906 27.09375 -50.550781 27.15625 -49.8125 C 27.21875 -49.082031 27.484375 -48.382812 27.953125 -47.71875 L 32.546875 -40.53125 C 32.878906 -39.9375 33.226562 -39.503906 33.59375 -39.234375 C 33.957031 -38.972656 34.40625 -38.84375 34.9375 -38.84375 L 35.9375 -38.84375 C 36.476562 -38.84375 36.929688 -38.972656 37.296875 -39.234375 C 37.660156 -39.503906 38.007812 -39.9375 38.34375 -40.53125 L 42.9375 -47.71875 C 43.394531 -48.382812 43.65625 -49.082031 43.71875 -49.8125 C 43.789062 -50.550781 43.828125 -51.253906 43.828125 -51.921875 L 43.828125 -68.296875 C 43.828125 -69.554688 44.109375 -70.46875 44.671875 -71.03125 C 45.242188 -71.601562 46.160156 -71.890625 47.421875 -71.890625 L 62.296875 -71.890625 C 63.566406 -71.890625 64.484375 -71.601562 65.046875 -71.03125 C 65.609375 -70.46875 65.890625 -69.554688 65.890625 -68.296875 L 65.890625 -49.125 C 65.890625 -46.0625 65.625 -43.765625 65.09375 -42.234375 C 64.5625 -40.703125 63.566406 -38.90625 62.109375 -36.84375 L 46.921875 -16.28125 L 46.921875 -3.59375 C 46.921875 -2.332031 46.640625 -1.414062 46.078125 -0.84375 C 45.515625 -0.28125 44.597656 0 43.328125 0 Z M 43.328125 0 "/></g></g></g><g fill="#8b3dff" fill-opacity="1"><g transform="translate(378.860815, 80.883806)"><g><path d="M 57.703125 0 L 8.1875 0 C 6.925781 0 6.007812 -0.28125 5.4375 -0.84375 C 4.875 -1.414062 4.59375 -2.332031 4.59375 -3.59375 L 4.59375 -16.96875 C 4.59375 -18.238281 4.789062 -19.351562 5.1875 -20.3125 C 5.59375 -21.28125 6.226562 -22.226562 7.09375 -23.15625 L 31.34375 -52.625 L 9.984375 -52.625 C 8.722656 -52.625 7.804688 -52.90625 7.234375 -53.46875 C 6.671875 -54.03125 6.390625 -54.945312 6.390625 -56.21875 L 6.390625 -68.296875 C 6.390625 -69.554688 6.671875 -70.46875 7.234375 -71.03125 C 7.804688 -71.601562 8.722656 -71.890625 9.984375 -71.890625 L 55.90625 -71.890625 C 57.175781 -71.890625 58.09375 -71.601562 58.65625 -71.03125 C 59.21875 -70.46875 59.5 -69.554688 59.5 -68.296875 L 59.5 -53.421875 C 59.5 -52.085938 59.300781 -50.9375 58.90625 -49.96875 C 58.507812 -49.007812 57.878906 -48.0625 57.015625 -47.125 L 33.84375 -19.0625 L 57.703125 -19.0625 C 58.972656 -19.0625 59.890625 -18.78125 60.453125 -18.21875 C 61.015625 -17.65625 61.296875 -16.738281 61.296875 -15.46875 L 61.296875 -3.59375 C 61.296875 -2.332031 61.015625 -1.414062 60.453125 -0.84375 C 59.890625 -0.28125 58.972656 0 57.703125 0 Z M 57.703125 0 "/></g></g></g></svg>